# xmcd
#
# Track frame offsets: 
#        150
#        34284
#        66922
#        99867
#        137714
#        168538
#        205135
#        238766
#        267617
#        296125
#        325332
#
# Disc length: 4731 seconds
#
# Revision: 1
# Processed by: cddbd v1.5.2PL0 Copyright (c) Steve Scherf et al.
# Submitted via: ExactAudioCopy v0.99pb4
#
DISCID=ad12790b
DTITLE=Fred Vargas - Hannelore Hoger - Es geht noch ein Zug von der Ga
DTITLE=re du Nord CD2
DYEAR=2009
DGENRE=Hörbuch
TTITLE0=11 Es geht noch ein Zug
TTITLE1=12 Es geht noch ein Zug
TTITLE2=13 Es geht noch ein Zug
TTITLE3=14 Es geht noch ein Zug
TTITLE4=15 Es geht noch ein Zug
TTITLE5=16 Es geht noch ein Zug
TTITLE6=17 Es geht noch ein Zug
TTITLE7=18 Es geht noch ein Zug
TTITLE8=19 Es geht noch ein Zug
TTITLE9=20 Es geht noch ein Zug
TTITLE10=21 Es geht noch ein Zug
EXTD=YEAR: 2009
EXTT0=
EXTT1=
EXTT2=
EXTT3=
EXTT4=
EXTT5=
EXTT6=
EXTT7=
EXTT8=
EXTT9=
EXTT10=
PLAYORDER=
